<?xml version="1.0" encoding="UTF-8" standalone="no"?>
<!-- Created with Inkscape (http://www.inkscape.org/) -->

<svg
   width="16"
   height="16"
   viewBox="0 0 4.2333333 4.2333333"
   version="1.1"
   id="svg5"
   inkscape:version="1.1.1 (3bf5ae0d25, 2021-09-20)"
   sodipodi:docname="icon.svg"
   inkscape:export-filename="D:\Renorari\Documents\Works\Discord-ADBot\icon.png"
   inkscape:export-xdpi="24576"
   inkscape:export-ydpi="24576"
   xmlns:inkscape="http://www.inkscape.org/namespaces/inkscape"
   xmlns:sodipodi="http://sodipodi.sourceforge.net/DTD/sodipodi-0.dtd"
   xmlns:xlink="http://www.w3.org/1999/xlink"
   xmlns="http://www.w3.org/2000/svg"
   xmlns:svg="http://www.w3.org/2000/svg">
  <sodipodi:namedview
     id="namedview7"
     pagecolor="#ffffff"
     bordercolor="#999999"
     borderopacity="1"
     inkscape:pageshadow="0"
     inkscape:pageopacity="0"
     inkscape:pagecheckerboard="true"
     inkscape:document-units="px"
     showgrid="true"
     units="px"
     inkscape:zoom="33.543378"
     inkscape:cx="8.0194666"
     inkscape:cy="8.0045605"
     inkscape:window-width="1920"
     inkscape:window-height="1009"
     inkscape:window-x="-8"
     inkscape:window-y="-8"
     inkscape:window-maximized="1"
     inkscape:current-layer="layer1">
    <sodipodi:guide
       position="0,4.2333333"
       orientation="0,16"
       id="guide824" />
    <sodipodi:guide
       position="4.2333333,4.2333333"
       orientation="16,0"
       id="guide826" />
    <sodipodi:guide
       position="4.2333333,0"
       orientation="0,-16"
       id="guide828" />
    <sodipodi:guide
       position="0,0"
       orientation="-16,0"
       id="guide830" />
    <inkscape:grid
       type="xygrid"
       id="grid832"
       spacingx="0.21166667"
       spacingy="-0.21166667" />
  </sodipodi:namedview>
  <defs
     id="defs2">
    <linearGradient
       inkscape:collect="always"
       id="linearGradient892">
      <stop
         style="stop-color:#0088aa;stop-opacity:1"
         offset="0"
         id="stop888" />
      <stop
         style="stop-color:#5599ff;stop-opacity:1"
         offset="1"
         id="stop890" />
    </linearGradient>
    <linearGradient
       inkscape:collect="always"
       xlink:href="#linearGradient892"
       id="linearGradient894"
       x1="3.175"
       y1="3.175"
       x2="1.0583334"
       y2="1.0583334"
       gradientUnits="userSpaceOnUse" />
    <filter
       style="color-interpolation-filters:sRGB;"
       inkscape:label="Drop Shadow"
       id="filter1707"
       x="-0.070866141"
       y="-0.070866141"
       width="1.1417323"
       height="1.1712598">
      <feFlood
         flood-opacity="0.501961"
         flood-color="rgb(0,0,0)"
         result="flood"
         id="feFlood1697" />
      <feComposite
         in="flood"
         in2="SourceGraphic"
         operator="in"
         result="composite1"
         id="feComposite1699" />
      <feGaussianBlur
         in="composite1"
         stdDeviation="0.1"
         result="blur"
         id="feGaussianBlur1701" />
      <feOffset
         dx="0"
         dy="0.1"
         result="offset"
         id="feOffset1703" />
      <feComposite
         in="SourceGraphic"
         in2="offset"
         operator="over"
         result="composite2"
         id="feComposite1705" />
    </filter>
  </defs>
  <g
     inkscape:label="Layer 1"
     inkscape:groupmode="layer"
     id="layer1">
    <circle
       style="fill:url(#linearGradient894);fill-opacity:1;stroke-width:0.0635;stroke-linecap:round;stroke-linejoin:round;paint-order:stroke fill markers;filter:url(#filter1707)"
       id="path856"
       cx="2.1166666"
       cy="2.1166666"
       r="1.6933334" />
    <path
       style="fill:#f9f9f9;fill-opacity:1;stroke-width:0.0635;stroke-linecap:round;stroke-linejoin:round;paint-order:stroke fill markers"
       id="path1263"
       d="m 1.4798145,1.1080662 c 0.00534,0.033537 0.00802,0.067437 0.01093,0.1012517 0.00353,0.046176 0.010236,0.092056 0.01329,0.1382662 0.00233,0.015545 -0.00248,0.029423 -0.00624,0.044097 -7.752e-4,0.00361 -0.00155,0.00721 -0.00233,0.010821 -0.029788,0.1466768 0.1776448,0.1888028 0.2074324,0.042126 v 0 c 7.7e-6,-2.494e-4 1.55e-5,-4.975e-4 2.32e-5,-7.488e-4 0.00916,-0.036345 0.015933,-0.073109 0.012276,-0.1108486 C 1.711836,1.2856383 1.7056089,1.238529 1.7016328,1.1911877 1.6981454,1.1506489 1.6948,1.1100131 1.6880054,1.0698652 1.6609931,0.92265195 1.4528022,0.96085302 1.4798145,1.1080662 Z" />
    <path
       style="fill:#f9f9f9;fill-opacity:1;stroke-width:0.0635;stroke-linecap:round;stroke-linejoin:round;paint-order:stroke fill markers"
       id="path1265"
       d="m 1.2425833,1.6438721 c 0.033602,-0.00388 0.06732,-0.00682 0.1010075,-0.00987 0.036581,-0.00321 0.073229,-0.00569 0.1099267,-0.00704 0.025045,-6.086e-4 0.050056,-0.00207 0.075088,-0.00303 0.026393,-5.662e-4 0.052792,-7.62e-4 0.07919,-9.763e-4 0.035259,-2.222e-4 0.070457,-0.00239 0.1056874,-0.00354 0.029413,-6.641e-4 0.058824,-0.00149 0.088241,-0.00198 0.029108,-3.201e-4 0.058188,-0.0016 0.087269,-0.00279 0.019819,-8.149e-4 0.039653,-0.0013 0.059443,-0.00266 0.00832,-2.294e-4 0.016502,-0.00221 0.024792,-0.00262 C 2.1224193,1.5973787 2.1054937,1.3863898 1.956302,1.398358 v 0 c -0.00781,6.615e-4 -0.015584,0.00164 -0.023374,0.00252 -0.017488,0.00151 -0.035109,0.00122 -0.052626,0.00227 -0.027366,0.00112 -0.05473,0.00235 -0.082122,0.00264 -0.03055,5.159e-4 -0.061094,0.00135 -0.09164,0.00206 -0.033493,0.00111 -0.066955,0.00313 -0.1004727,0.00343 -0.028539,2.329e-4 -0.057082,4.259e-4 -0.085614,0.00113 -0.024958,9.684e-4 -0.049896,0.0024 -0.074867,0.00303 -0.040442,0.00153 -0.080835,0.00419 -0.1211486,0.00776 -0.037673,0.00343 -0.075396,0.00662 -0.1129359,0.011299 -0.1480484,0.021976 -0.1169671,0.2313485 0.031081,0.2093707 z" />
    <path
       style="fill:#f9f9f9;fill-opacity:1;stroke-width:0.0635;stroke-linecap:round;stroke-linejoin:round;paint-order:stroke fill markers"
       id="path1267"
       d="m 1.1054219,1.5673768 c 0.00434,0.036248 0.00608,0.072734 0.00743,0.1091942 0.00251,0.056969 9.049e-4,0.1139485 -0.00197,0.1708609 -0.00434,0.077657 -0.01055,0.1551815 -0.018835,0.2325139 -0.0062,0.059551 -0.016712,0.1185007 -0.027313,0.1773859 -0.00811,0.051079 -0.018165,0.1017216 -0.032289,0.1514775 -0.013756,0.044982 -0.029904,0.089176 -0.0467335,0.1330832 -0.0114871,0.028865 -0.0222264,0.05804 -0.0345259,0.086574 -0.00705,0.015167 -0.0146103,0.030091 -0.0220012,0.045094 -0.00888,0.017412 -0.0167182,0.0353 -0.0242956,0.053307 -0.0108529,0.026212 -0.0227534,0.051966 -0.0348403,0.077625 -0.00816,0.017322 -0.0162129,0.034697 -0.0242255,0.05209 -0.062618,0.1359427 0.12963371,0.2244979 0.1922518,0.088555 v 0 c 0.00776,-0.016854 0.015567,-0.033686 0.023472,-0.050471 0.013337,-0.028333 0.026447,-0.056778 0.038443,-0.085711 0.00595,-0.014142 0.012024,-0.028218 0.019073,-0.04186 0.00902,-0.018317 0.018299,-0.036519 0.026637,-0.055163 0.013316,-0.031135 0.02528,-0.062821 0.037674,-0.09433 0.01911,-0.049921 0.037416,-0.1001854 0.052807,-0.1513971 0.015782,-0.056357 0.027806,-0.1135422 0.036871,-0.1713732 0.011495,-0.063857 0.022749,-0.1278063 0.029462,-0.1923844 0.00868,-0.081304 0.015252,-0.1628029 0.019771,-0.244448 0.00312,-0.063078 0.00485,-0.1262313 0.00209,-0.189368 -0.00162,-0.042828 -0.00377,-0.085681 -0.00901,-0.1282457 C 1.2962797,1.3919369 1.0863411,1.4189269 1.1054259,1.567376 Z" />
    <path
       style="fill:#f9f9f9;fill-opacity:1;stroke-width:0.0635;stroke-linecap:round;stroke-linejoin:round;paint-order:stroke fill markers"
       id="path1269"
       d="m 1.5096996,2.0190778 c -0.01658,0.04096 -0.035949,0.080717 -0.05481,0.1206551 -0.029143,0.061383 -0.05557,0.1240088 -0.08155,0.1867809 -0.01994,0.048318 -0.036442,0.097923 -0.050115,0.1483479 -0.00851,0.033583 -0.016507,0.067291 -0.025097,0.1008545 -0.00803,0.029386 -0.01627,0.058705 -0.023931,0.088191 -0.00505,0.019415 -0.00996,0.038875 -0.014037,0.058521 -0.010298,0.051217 0.0087,0.094817 0.052765,0.12388 0.024149,0.015928 0.041808,0.014235 0.06708,0.015221 0.035552,-0.00278 0.069131,-0.015499 0.101836,-0.028914 0.03643,-0.015528 0.071168,-0.034646 0.105436,-0.054405 0.028866,-0.016833 0.056975,-0.034928 0.086217,-0.051106 0.024081,-0.012727 0.048857,-0.024418 0.075279,-0.031314 0.017296,-0.00458 0.035054,-0.00638 0.052877,-0.007 0.013717,-1.71e-4 0.027431,3.968e-4 0.041131,0.00101 0.00271,2.548e-4 0.00541,5.027e-4 0.00811,8.202e-4 -0.019191,-0.00276 -0.036452,-0.011475 -0.050884,-0.023754 0.00105,0.0019 0.015467,0.012118 0.016126,0.012594 0.1256772,0.081281 0.240626,-0.096453 0.1149488,-0.1777345 v 0 c 0.012145,0.0089 0.00535,0.0035 0.014207,0.011218 8.387e-4,7.329e-4 -0.00378,-0.00349 -0.00244,-0.00228 -0.017005,-0.015387 -0.037915,-0.026525 -0.061111,-0.029435 -0.00972,-0.00138 -0.019511,-0.00229 -0.029314,-0.00287 -0.019864,-9.024e-4 -0.039756,-0.00162 -0.059641,-0.00105 -0.034246,0.00157 -0.068353,0.00557 -0.1014837,0.014764 -0.042002,0.01224 -0.082445,0.028796 -0.1207416,0.050078 -0.030162,0.01686 -0.059469,0.035137 -0.089174,0.052783 -0.026299,0.015234 -0.052919,0.030062 -0.080802,0.042232 -7.779e-4,3.308e-4 -0.051549,0.017514 -0.028039,0.012825 0.00486,4.498e-4 0.00989,-3.01e-5 0.014567,0.00135 0.011628,0.00344 0.024145,0.00591 0.033972,0.01301 0.03291,0.023789 0.053267,0.059632 0.046489,0.1003112 0.00311,-0.016002 0.00759,-0.031717 0.011493,-0.047534 0.00773,-0.029743 0.016111,-0.059296 0.02413,-0.088961 0.00836,-0.032677 0.016217,-0.065481 0.024403,-0.098205 0.011155,-0.041681 0.024948,-0.082595 0.041332,-0.1225255 0.024649,-0.05959 0.049706,-0.11905 0.077362,-0.1773196 C 1.6672561,2.18572 1.6887201,2.141493 1.7069451,2.0958753 1.761248,1.9564073 1.564006,1.8796066 1.5096996,2.0190778 Z" />
    <path
       style="fill:#f9f9f9;fill-opacity:1;stroke-width:0.0635;stroke-linecap:round;stroke-linejoin:round;paint-order:stroke fill markers"
       id="path1271"
       d="m 1.7403076,2.3597293 c 0.014379,0.023915 0.027164,0.048709 0.039144,0.073895 0.013052,0.030516 0.022379,0.062539 0.031153,0.094507 0.0092,0.034301 0.01524,0.06932 0.020691,0.1043757 0.00455,0.028903 0.00705,0.058053 0.00832,0.087267 0.00117,0.026199 0.00111,0.052426 0.00116,0.078644 2.354e-4,0.012875 -6.614e-4,0.025694 -0.00196,0.038488 -8.864e-4,0.00687 -0.00147,0.010464 -0.00232,0.016584 -0.00187,0.012554 1.696e-4,0.022347 7.25e-4,0.037144 0.028394,0.146953 0.2362169,0.1067977 0.2078228,-0.040155 v 0 c 7.276e-4,0.021503 -1.246e-4,0.043191 0.00116,0.031752 0.00107,-0.00811 0.00239,-0.016195 0.00324,-0.024339 0.00196,-0.01991 0.00324,-0.03988 0.003,-0.059901 -6.17e-5,-0.029264 -4.45e-5,-0.058535 -0.00138,-0.087777 -0.00172,-0.036942 -0.00485,-0.07381 -0.010642,-0.1103605 -0.00674,-0.043039 -0.01435,-0.085998 -0.025789,-0.1280766 C 2.0024424,2.4278604 1.9893385,2.383944 1.9704393,2.3423739 1.9550536,2.3102788 1.9387274,2.2786299 1.9202119,2.2482071 1.8413538,2.1209955 1.6614495,2.2325178 1.7403076,2.3597293 Z" />
    <path
       style="fill:#f9f9f9;fill-opacity:1;stroke-width:0.0635;stroke-linecap:round;stroke-linejoin:round;paint-order:stroke fill markers"
       id="path1273"
       d="m 2.2804384,1.1691437 c 0.00252,0.04935 0.00284,0.098732 0.00113,0.1481066 -0.0021,0.054342 -0.010596,0.108009 -0.022457,0.1609845 -0.00743,0.032241 -0.017723,0.063695 -0.031576,0.09373 -0.011162,0.022558 -0.024058,0.044187 -0.037047,0.065723 -0.010176,0.016849 -0.020877,0.033375 -0.031856,0.04971 -0.00356,0.00515 -0.00187,0.00273 -0.00507,0.00727 -0.086076,0.1224432 0.087085,0.2441729 0.1731608,0.1217297 v 0 c 0.0048,-0.00684 0.00226,-0.00318 0.00762,-0.010983 0.012892,-0.019205 0.025461,-0.038632 0.037414,-0.058437 0.017232,-0.028592 0.034198,-0.057403 0.048543,-0.087582 0.019537,-0.043513 0.035007,-0.088652 0.045439,-0.1352561 0.014518,-0.065766 0.024911,-0.1323854 0.027376,-0.1998056 0.00178,-0.054955 0.00162,-0.1099182 -0.00123,-0.1648443 -0.00683,-0.1495151 -0.2182737,-0.1398598 -0.2114464,0.00966 z" />
    <path
       style="fill:#f9f9f9;fill-opacity:1;stroke-width:0.0635;stroke-linecap:round;stroke-linejoin:round;paint-order:stroke fill markers"
       id="path1275"
       d="m 2.4136424,1.6372512 c 0.032618,-0.0048 0.065276,-0.00934 0.097941,-0.013811 0.037912,-0.00526 0.076108,-0.00776 0.1143184,-0.00949 0.03594,-0.00131 0.071902,-0.00168 0.107851,-0.00265 0.040583,-0.00164 0.081106,-0.00442 0.12168,-0.00625 0.030776,-0.00121 0.061568,-0.00172 0.092366,-0.00155 0.024215,1.32e-5 0.048413,9.895e-4 0.0726,0.00207 0.014721,8.837e-4 0.029436,0.00187 0.044152,0.00284 0.00585,3.095e-4 0.011689,6.932e-4 0.0175,0.00143 0.00251,2.752e-4 0.014438,0.00184 0.00269,2.578e-4 0.1471211,0.02751 0.1860265,-0.1805501 0.038906,-0.2080604 v 0 c -0.00565,-9.023e-4 -0.011274,-0.00185 -0.016965,-0.00243 -0.00937,-0.00107 -0.018764,-0.00194 -0.028187,-0.0024 -0.016227,-0.00107 -0.032455,-0.00217 -0.048693,-0.00309 -0.026956,-0.0012 -0.053925,-0.00225 -0.080912,-0.00227 -0.034351,-1.697e-4 -0.068699,3.836e-4 -0.103025,0.00177 -0.039292,0.00178 -0.078537,0.00438 -0.1178309,0.00611 -0.037262,0.00101 -0.074539,0.00137 -0.111789,0.0028 -0.044583,0.00206 -0.089144,0.00507 -0.1333769,0.011222 -0.034239,0.00469 -0.068474,0.00943 -0.10266,0.014509 C 2.2324167,1.4519046 2.2658573,1.660913 2.413649,1.637267 Z" />
    <path
       style="fill:#f9f9f9;fill-opacity:1;stroke-width:0.0635;stroke-linecap:round;stroke-linejoin:round;paint-order:stroke fill markers"
       id="path1277"
       d="m 2.6363478,1.2348861 c 0.00186,0.030641 0.00349,0.061295 0.00528,0.09194 0.00215,0.033784 0.00334,0.067613 0.0056,0.1013892 0.00275,0.031618 0.00524,0.063239 0.00706,0.094925 0.00188,0.032774 0.00367,0.065548 0.00405,0.098377 -5.79e-5,0.031799 -0.00116,0.063583 -0.00254,0.095348 -0.00164,0.030187 -0.00198,0.060423 -0.00249,0.090643 -3.439e-4,0.017947 -7.672e-4,0.035906 -0.0022,0.053804 -4.233e-4,0.00668 -0.0019,0.013216 -0.00326,0.019754 -0.00336,0.013486 -0.00521,0.027229 -0.00606,0.041086 -2.085e-4,0.0061 -1.472e-4,0.00316 -2.005e-4,0.00883 -1.437e-4,0.1496709 0.2115229,0.1498741 0.2116666,2.033e-4 v 0 c -4.29e-5,0.00159 -4.3e-6,8.81e-4 -9.34e-5,0.00212 -1.794e-4,9.155e-4 -8.731e-4,0.00363 -6.879e-4,0.00271 8.731e-4,-0.00423 0.00198,-0.00841 0.00277,-0.012667 0.00306,-0.015074 0.00586,-0.030229 0.00688,-0.045603 0.00169,-0.022187 0.00246,-0.044427 0.00281,-0.066674 4.763e-4,-0.028352 7.673e-4,-0.05672 0.00233,-0.085039 0.00153,-0.03571 0.00275,-0.071444 0.00271,-0.1071929 -4.763e-4,-0.035985 -0.00225,-0.071917 -0.00438,-0.1078407 -0.00185,-0.032384 -0.00432,-0.064712 -0.00719,-0.097023 -0.00225,-0.033147 -0.0033,-0.066357 -0.00548,-0.09951 C 2.8511526,1.284213 2.8495426,1.253951 2.8477026,1.223702 2.8397926,1.0742401 2.6284232,1.085424 2.6363315,1.234886 Z" />
    <path
       style="fill:#f9f9f9;fill-opacity:1;stroke-width:0.0635;stroke-linecap:round;stroke-linejoin:round;paint-order:stroke fill markers"
       id="path1279"
       d="m 2.3256865,2.1396328 c 0.027288,-0.00256 0.054184,-0.0079 0.08098,-0.013482 0.020343,-0.00453 0.040804,-0.00852 0.061284,-0.012381 0.019321,-0.00342 0.038852,-0.00527 0.058379,-0.00702 0.022831,-0.00217 0.045658,-0.00404 0.068572,-0.005 0.031651,-9.472e-4 0.063322,-4.683e-4 0.094975,1.184e-4 0.035567,0.00102 0.070978,0.00482 0.1062574,0.00925 0.040233,0.00543 0.08021,0.012573 0.1201193,0.019972 0.02559,0.00503 0.05131,0.00943 0.076826,0.014829 0.014796,0.00343 0.029259,0.0081 0.043849,0.01228 0.011295,0.00324 0.02273,0.00595 0.034232,0.00834 0.015309,0.00178 0.023281,0.00564 0.00153,-0.00102 -0.00212,-8.731e-4 -0.0085,-0.00331 -0.00633,-0.00262 0.012838,0.00411 0.028987,0.012023 0.043234,0.010391 0.041583,-0.00476 0.054579,-0.00758 0.082862,-0.034854 0.00612,-0.0059 0.00991,-0.013814 0.014867,-0.020722 0.0073,-0.012478 0.010411,-0.025854 0.012777,-0.039855 C 3.2376255,1.9292181 3.0274154,1.90443 3.0098875,2.053071 v 0 c 0.0023,-0.013356 0.00529,-0.026098 0.012306,-0.037978 0.0048,-0.00662 0.00847,-0.014226 0.014396,-0.019869 0.027843,-0.026539 0.040163,-0.02889 0.080952,-0.033451 0.014258,-0.0016 0.026376,0.006 0.039297,0.00977 0.00324,9.472e-4 -0.0062,-0.00268 -0.0093,-0.00402 -0.010337,-0.0034 -0.025244,-0.00769 -0.033933,-0.00836 -0.00629,-0.00124 -0.012523,-0.00281 -0.018695,-0.00455 C 3.0754955,1.949143 3.0562865,1.942868 3.0365115,1.938741 3.0093645,1.933081 2.9820595,1.928209 2.9548325,1.922954 2.9108165,1.914794 2.8667185,1.906974 2.8223357,1.901064 2.7796547,1.895774 2.7368197,1.891274 2.6937919,1.890226 c -0.036002,-6.641e-4 -0.072028,-0.00116 -0.1080251,4.26e-5 -0.026157,0.00115 -0.052233,0.00315 -0.078295,0.00565 -0.026365,0.00236 -0.052717,0.00508 -0.078777,0.00985 -0.0218,0.00412 -0.043586,0.00835 -0.065244,0.013167 -0.019327,0.00404 -0.038689,0.00814 -0.058373,0.010029 -0.1489599,0.014572 -0.1283523,0.2252329 0.020608,0.2106611 z" />
    <path
       style="fill:#f9f9f9;fill-opacity:1;stroke-width:0.0635;stroke-linecap:round;stroke-linejoin:round;paint-order:stroke fill markers"
       id="path1281"
       d="m 2.3320425,2.4510053 c 0.00719,0.041569 0.012973,0.083358 0.020139,0.1249293 0.00736,0.04118 0.015959,0.082121 0.023262,0.1233112 0.00615,0.033463 0.012497,0.066887 0.018533,0.1003705 0.0042,0.022408 0.00776,0.044924 0.011173,0.067461 0.00248,0.015976 0.00511,0.03193 0.00811,0.047818 0.027837,0.1470594 0.2358102,0.1076925 0.2079737,-0.039367 v 0 c -0.00254,-0.013356 -0.00471,-0.026775 -0.00681,-0.040204 -0.00372,-0.024474 -0.00759,-0.048923 -0.012135,-0.073258 -0.006,-0.033299 -0.012306,-0.066542 -0.018434,-0.099819 -0.00727,-0.0409 -0.015706,-0.081573 -0.023111,-0.1224497 C 2.5539154,2.5006506 2.5486899,2.4612488 2.5417293,2.4221221 2.5213058,2.2738512 2.311619,2.3027343 2.3320425,2.4510053 Z" />
    <path
       style="fill:#f9f9f9;fill-opacity:1;stroke-width:0.0635;stroke-linecap:round;stroke-linejoin:round;paint-order:stroke fill markers"
       id="path1283"
       d="m 2.4997249,2.5730948 c 0.018851,-0.00436 0.038195,-0.00555 0.057448,-0.00668 0.034058,-0.00201 0.068088,-0.00446 0.102132,-0.00668 0.030348,-0.00175 0.060665,-0.00403 0.091013,-0.00577 0.025665,-0.0014 0.051333,-0.0027 0.077037,-0.00305 0.023201,-1.786e-4 0.046376,0.00116 0.069503,0.0029 0.00903,0.00115 0.018862,0.00107 0.027147,0.00488 -0.011634,-0.00263 -0.020421,-0.011871 -0.028199,-0.020362 0.0029,0.019943 0.00212,0.040052 0.00111,0.060093 -0.00287,0.039029 -0.00708,0.077934 -0.0099,0.1169683 -0.00235,0.03701 -0.00348,0.074079 -0.00539,0.1111118 -6.879e-4,0.0201 -0.00214,0.040124 -0.00447,0.060096 -0.00262,0.017679 -0.00372,0.035708 -0.00746,0.053213 -0.027591,0.147106 0.1804482,0.1861254 0.2080392,0.039019 v 0 c 0.00406,-0.022529 0.007,-0.045238 0.00969,-0.067968 0.0028,-0.024408 0.0047,-0.048885 0.00558,-0.073444 0.00183,-0.035622 0.00298,-0.071276 0.00514,-0.1068805 0.00289,-0.040763 0.00759,-0.081367 0.01021,-0.12215 0.00206,-0.045823 0.00164,-0.092047 -0.011549,-0.136439 -0.00363,-0.00956 -0.00656,-0.019408 -0.010885,-0.02867 -0.018174,-0.038908 -0.050603,-0.068457 -0.090472,-0.083836 -0.026883,-0.00908 -0.054438,-0.015123 -0.082855,-0.016714 -0.029391,-0.00217 -0.058844,-0.00378 -0.088329,-0.00346 -0.028735,4.498e-4 -0.057438,0.00175 -0.08613,0.00337 -0.03088,0.00179 -0.061731,0.00406 -0.092611,0.00586 -0.033686,0.0022 -0.067358,0.00462 -0.1010579,0.00661 -0.031606,0.00194 -0.063258,0.0047 -0.094126,0.012141 -0.1455383,0.034928 -0.096142,0.2407506 0.049396,0.2058222 z" />
    <path
       style="fill:#f9f9f9;fill-opacity:1;stroke-width:0.0635;stroke-linecap:round;stroke-linejoin:round;paint-order:stroke fill markers"
       id="path1285"
       d="m 2.6341721,3.030007 c 0.024646,2.63e-4 0.049293,-9.58e-5 0.073936,4.498e-4 0.02137,2.645e-4 0.042547,0.00299 0.063571,0.00663 0.025895,0.00491 0.051719,0.010179 0.077716,0.014536 0.022323,0.00361 0.044736,0.00661 0.06709,0.010015 0.013404,0.00268 0.027093,0.00349 0.040585,0.00546 0.014473,0.00101 0.00746,7.938e-4 0.021048,7.144e-4 0.1495698,-0.00551 0.1417783,-0.2170324 -0.00779,-0.2115233 v 0 c 0.00796,1.008e-4 0.00401,-1.177e-4 0.01184,6.35e-4 -0.011324,-0.0013 -0.022654,-0.00246 -0.033876,-0.00455 -0.02137,-0.00324 -0.042788,-0.00615 -0.064135,-0.00954 -0.025815,-0.00426 -0.051398,-0.00977 -0.077141,-0.014438 -0.031262,-0.00521 -0.062741,-0.00914 -0.094482,-0.00956 -0.024752,-5.028e-4 -0.049506,-3.175e-4 -0.074262,-4.498e-4 -0.1496429,-0.0029 -0.1537388,0.2087308 -0.0041,0.2116269 z" />
  </g>
</svg>
